<svg xmlns="http://www.w3.org/2000/svg" width="32" height="32" fill="none"><g clip-path="url(#a)"><path fill="#E5E7EB" d="M15.077 3.02c.341-.821 1.505-.821 1.846 0l3.075 7.391a1 1 0 0 0 .843.613l7.98.64c.886.07 1.245 1.177.57 1.756l-6.08 5.208a1 1 0 0 0-.322.991l1.858 7.787c.206.865-.735 1.549-1.494 1.085l-6.832-4.173a1 1 0 0 0-1.042 0l-6.832 4.173c-.759.464-1.7-.22-1.494-1.085l1.858-7.787a1 1 0 0 0-.322-.991l-6.08-5.208c-.675-.579-.316-1.685.57-1.756l7.98-.64a1 1 0 0 0 .843-.613z"/><g clip-path="url(#b)"><path fill="#FBBF24" d="M15.077 3.02c.341-.821 1.505-.821 1.846 0l3.075 7.391a1 1 0 0 0 .843.613l7.98.64c.886.07 1.245 1.177.57 1.756l-6.08 5.208a1 1 0 0 0-.322.991l1.858 7.787c.206.865-.735 1.549-1.494 1.085l-6.832-4.173a1 1 0 0 0-1.042 0l-6.832 4.173c-.759.464-1.7-.22-1.494-1.085l1.858-7.787a1 1 0 0 0-.322-.991l-6.08-5.208c-.675-.579-.316-1.685.57-1.756l7.98-.64a1 1 0 0 0 .843-.613z"/></g></g><defs><clipPath id="a"><path fill="#fff" d="M0 0h32v32H0z"/></clipPath><clipPath id="b"><path fill="#fff" d="M0 0h32v32H0z"/></clipPath></defs></svg>